<?xml version="1.0" encoding="UTF-8" standalone="no"?>
<!-- Created with Inkscape (http://www.inkscape.org/) -->

<svg
   xmlns:dc="http://purl.org/dc/elements/1.1/"
   xmlns:cc="http://creativecommons.org/ns#"
   xmlns:rdf="http://www.w3.org/1999/02/22-rdf-syntax-ns#"
   xmlns:svg="http://www.w3.org/2000/svg"
   xmlns="http://www.w3.org/2000/svg"
   xmlns:sodipodi="http://sodipodi.sourceforge.net/DTD/sodipodi-0.dtd"
   xmlns:inkscape="http://www.inkscape.org/namespaces/inkscape"
   version="1.1"
   id="svg947"
   width="100mm"
   height="100mm"
   viewBox="0 0 377.95273 377.95273"
   sodipodi:docname="mouSTer-logo.svg"
   inkscape:version="0.92.3 (2405546, 2018-03-11)"
   inkscape:export-filename="/home/willy/workspace-mouSTer/logo/mouster-logo-9x9.png"
   inkscape:export-xdpi="299.15558"
   inkscape:export-ydpi="299.15558">
  <metadata
     id="metadata953">
    <rdf:RDF>
      <cc:Work
         rdf:about="">
        <dc:format>image/svg+xml</dc:format>
        <dc:type
           rdf:resource="http://purl.org/dc/dcmitype/StillImage" />
        <dc:title></dc:title>
      </cc:Work>
    </rdf:RDF>
  </metadata>
  <defs
     id="defs951" />
  <sodipodi:namedview
     pagecolor="#ffffff"
     bordercolor="#666666"
     borderopacity="1"
     objecttolerance="10"
     gridtolerance="10"
     guidetolerance="10"
     inkscape:pageopacity="0"
     inkscape:pageshadow="2"
     inkscape:window-width="1880"
     inkscape:window-height="1055"
     id="namedview949"
     showgrid="false"
     inkscape:zoom="1.4142135"
     inkscape:cx="146.70483"
     inkscape:cy="168.60831"
     inkscape:window-x="0"
     inkscape:window-y="0"
     inkscape:window-maximized="1"
     inkscape:current-layer="svg947"
     units="mm" />
  <path
     style="fill:#000000;stroke-width:0.41496974"
     d="m 180.06725,377.84071 c -0.0969,-0.0891 -2.13827,-0.28525 -4.53475,-0.44013 -6.00566,-0.38776 -8.32545,-0.63401 -12.6566,-1.3409 -2.05407,-0.33539 -4.2949,-0.69863 -4.97959,-0.80894 -1.10244,-0.17606 -3.70228,-0.70198 -9.12933,-1.84688 -3.10416,-0.65407 -13.02504,-3.69253 -18.28394,-5.59879 -17.48292,-6.33732 -32.554625,-14.65679 -47.122775,-26.01138 -10.562666,-8.23266 -21.51321,-19.11313 -29.323814,-29.1363 -1.434007,-1.84019 -2.834522,-3.63091 -3.112296,-3.97933 -0.277773,-0.34876 -1.336754,-1.84231 -2.353228,-3.3197 -1.016523,-1.4775 -2.429765,-3.52661 -3.140541,-4.55373 -1.341755,-1.93881 -4.444008,-6.98738 -6.502157,-10.58163 -1.390429,-2.42818 -6.603723,-12.94485 -7.611192,-15.35387 -4.023241,-9.62036 -6.177854,-15.73405 -8.289556,-23.52112 -6.956698,-25.6537 -7.798155,-56.1495 -2.242241,-81.25877 3.519,-15.90387 11.086271,-36.08189 18.208222,-48.55218 0.977357,-1.71139 2.121047,-3.71303 2.541551,-4.44822 0.902245,-1.57733 2.97549,-4.79876 3.279294,-5.09537 0.117164,-0.11477 0.939171,-1.32786 1.827325,-2.69727 1.737541,-2.67923 7.81888,-10.826321 9.602294,-12.86407 0.599269,-0.685266 2.140888,-2.458713 3.42592,-3.942231 6.152965,-7.103482 16.402745,-16.577094 24.984261,-23.092696 4.545497,-3.451068 13.583695,-9.547821 14.482867,-9.769223 0.31208,-0.078 0.813071,0.800034 1.253816,2.195972 0.98137,3.107321 6.52066,12.915543 6.52066,12.915543 C 41.206198,122.77254 37.03847,181.48405 41.106312,184.25731 c 4.375999,2.98331 49.133694,-68.58168 84.278968,-77.81773 3.27298,-0.38442 13.31534,-1.97189 18.99958,-1.69712 l 6.04198,-7.658379 -4.35718,-1.613663 c -9.11149,-3.374408 -14.52247,-6.726307 -20.5541,-12.73236 -4.81829,-4.797868 -7.32386,-8.198014 -10.09146,-13.694185 -6.60648,-13.120231 -6.98279,-28.342727 -1.00973,-40.846553 3.00004,-6.280271 4.97916,-9.072369 9.87339,-13.929181 3.6538,-3.626006 4.2914,-4.144357 7.87444,-6.4018358 15.9086,-10.0234966 36.42006,-9.9846091 52.00698,0.1002829 3.65823,2.3665649 4.1887,2.7991179 7.72821,6.3033359 7.05597,6.985371 12.02533,16.231564 13.49297,25.105707 0.24547,1.483518 0.52325,3.164037 0.61741,3.734646 0.0947,0.570498 0.18563,1.690992 0.20313,2.489913 l 0.0334,1.452319 5.91205,1.415548 c 21.40937,5.126127 38.68418,14.841978 53.3658,30.014777 6.41843,6.633156 9.37274,10.555219 11.49001,15.253806 1.105,2.452362 1.21593,3.112001 1.22118,7.262042 -0.6027,3.97109 -0.8787,3.49541 -3.10107,6.85968 -2.22685,3.37107 -7.96987,7.08788 -12.69764,8.862 -1.63464,0.61284 -5.82063,1.69433 -9.30212,2.40211 -14.38305,2.9238 -24.01991,7.90095 -33.20433,17.14926 -5.59291,5.632 -12.01409,15.25882 -15.09606,22.63262 l -3.40802,20.78307 4.21815,2.89628 c 6.47352,4.14937 11.70974,12.34672 13.31359,20.8428 1.03949,5.5062 0.98244,8.8611 -0.24079,14.14545 -1.27973,5.52838 -2.1218,7.34004 -5.22212,11.23124 -4.50298,5.65161 -12.59918,10.69383 -19.1076,9.68566 -4.58732,-0.7109 -4.41474,6.53164 -4.73126,10.0294 -0.35511,3.92696 0.23065,-9.06635 0.13249,-5.78242 -0.21127,7.0501 -0.16881,10.91835 -0.62209,14.60698 -0.17951,1.45867 -0.34241,3.11779 -0.36247,3.68684 -0.22463,6.35092 -2.9264,26.16403 -5.80375,34.25964 -2.96387,8.40103 -4.73517,19.5516 -14.10335,32.30123 -7.66424,7.09323 -14.25639,11.8755 -9.18602,15.8126 0.36581,0.28414 6.48563,12.37201 44.2888,10.07721 9.16356,-2.27141 17.54303,-4.85292 18.57006,-4.99833 4.10367,-0.58052 13.40485,-4.59329 18.82289,-6.42133 18.15353,-6.12517 33.87267,-15.31543 47.8433,-27.97168 4.07657,-3.69298 5.05209,-4.65302 9.06974,-8.92529 9.23043,-9.81558 19.30002,-25.17735 25.16116,-38.38472 0.86098,-1.94003 1.89795,-4.27417 2.30459,-5.18719 3.04094,-6.82737 7.84033,-23.99557 8.87435,-31.7451 0.13717,-1.02734 0.55902,-4.20152 0.93664,-7.05446 0.74934,-5.65495 1.01241,-23.98877 0.41974,-29.25541 -0.17961,-1.59762 -0.42041,-3.74512 -0.53484,-4.77213 -0.53395,-4.80689 -1.38829,-10.29927 -2.28255,-14.68063 -2.41025,-11.80898 -6.41768,-25.35664 -12.22872,-41.34028 -1.32579,-3.64673 -1.46521,-6.63171 -0.40692,-8.71436 2.99965,-5.90321 10.0778,-6.87796 14.57696,-2.00744 5.08188,5.5013 12.73982,19.00004 16.72646,29.48384 3.7388,9.83195 7.11886,23.65751 8.19599,33.52423 0.11231,1.02734 0.28391,2.11363 0.38208,2.41481 0.30541,0.94043 0.80426,12.05244 0.80426,17.91866 0,23.07642 -4.24378,44.71123 -12.94231,65.98011 -7.02646,17.18024 -17.2344,33.73048 -29.30553,47.51314 -4.08989,4.66984 -14.27208,14.73055 -18.54525,18.32402 -18.81044,15.8184 -39.82426,27.1419 -62.97103,33.93239 -9.84395,2.88792 -21.38079,5.20557 -29.15223,5.85629 -1.7118,0.14263 -3.57916,0.35545 -4.1497,0.47133 -1.2425,0.25182 -23.84342,0.62844 -24.09821,0.40113 z M 223.82684,96.458427 c 3.11136,-0.562699 6.07487,-3.144871 7.48642,-6.523179 0.40147,-0.961601 0.57106,-2.486458 0.48827,-4.389047 -0.15065,-3.466556 -1.36774,-5.628544 -4.50021,-7.996111 -2.12946,-1.609317 -3.05378,-1.855568 -6.61657,-1.762193 -3.65299,0.100283 -7.20723,2.335923 -8.90018,5.609713 -0.91502,1.769324 -1.19897,5.715567 -0.57239,7.953101 0.95536,3.412403 4.4547,6.591036 7.96852,7.238306 1.87361,0.345419 2.0417,0.339848 4.64605,-0.130367 z"
     id="path957"
     inkscape:connector-curvature="0"
     sodipodi:nodetypes="cccccccccccscssccccccsccsscccsscssscscccccsccscsscccccssscccccscccssccccccscccsccscccccccccccccccccc"
     inkscape:export-xdpi="71.998039"
     inkscape:export-ydpi="71.998039" />
</svg>
